<svg xmlns="http://www.w3.org/2000/svg" width="16" height="16" fill="none"><path fill="#000" stroke="#fff" stroke-width="1.5" d="M14.845 1.155h.001a1.4 1.4 0 0 1 0 1.967v.001L10.49 7.477l-.53.53.53.53 4.355 4.351a1.37 1.37 0 0 1 0 1.943 1.384 1.384 0 0 1-.987.419c-.352 0-.685-.124-.946-.402l-.008-.01-.01-.008-4.354-4.324-.529-.525-.528.525-4.355 4.324-.002.002a1.384 1.384 0 0 1-.986.418c-.34 0-.712-.144-.987-.418v-.001c-.532-.53-.546-1.401.004-1.97l4.35-4.322.533-.53-.532-.532-4.355-4.354a1.4 1.4 0 0 1 0-1.967v-.001a1.403 1.403 0 0 1 1.977.005l4.351 4.344.532.531.53-.532 4.325-4.344a1.403 1.403 0 0 1 1.976-.004Z"></path></svg>