<svg xmlns="http://www.w3.org/2000/svg" width="19" height="20" fill="none"><path stroke="#000" stroke-linecap="round" stroke-linejoin="round" stroke-width="1.5" d="M16.325 7.467s-.543 6.735-.858 9.572c-.15 1.355-.987 2.149-2.358 2.174-2.609.047-5.221.05-7.829-.005-1.319-.027-2.142-.831-2.289-2.162-.317-2.862-.857-9.58-.857-9.58" opacity="0.4"></path><path stroke="#000" stroke-linecap="round" stroke-linejoin="round" stroke-width="1.5" d="M17.708 4.238H.75M14.44 4.239a1.648 1.648 0 0 1-1.614-1.324l-.243-1.216A1.28 1.28 0 0 0 11.346.75H7.113a1.28 1.28 0 0 0-1.237.949l-.243 1.216a1.648 1.648 0 0 1-1.615 1.324"></path></svg>